# xmcd
#
# Track frame offsets:
#	150
#	8300
#	33780
#	57617
#	79322
#	102133
#	136098
#	163097
#	195627
#	226220
#	250353
#
# Disc length: 3721 seconds
#
# Revision: 0
# Processed by: cddbd v1.5.2PL0 Copyright (c) Steve Scherf et al.
# Submitted via: EasyCDDAExtractor 16.0.6.1
#
DISCID=810e870b
DTITLE=Χορωδία - Θούριος-Ρήγας Βελεστινλής
DYEAR=1998
DGENRE=Ελλ. πατριωτική
TTITLE0=Κυριακόπουλος Χρίστος π. - Λαφίνα [κλεφταρματολικός με φλογέρα]
TTITLE1=Χορωδία - Θούριος [παλαιόν μέλος, ήχος γ', ρ. εξάσημος]
TTITLE2=Χορωδία - Μιά προσταγή μεγάλη [περιοχής Χαλκιδικής]
TTITLE3=Χορωδία - Θούριος [προς τον ήχον ''Μιά προσταγή μεγάλη'']
TTITLE4=Χορωδία - Η πατρίς προς τα τέκνα της [Αντ. Σιγάλα]
TTITLE5=Χορωδία - Θούριος [παραδ. παραλλαγή, Αντ. Σιγάλα]
TTITLE6=Χορωδία - Στη βρύση στα Τσερίτσιανα [Τζαβέλαινα, Ηπείρου]
TTITLE7=Χορωδία - Θούριος [ήχος πλ. β', ρ. επτάσημος]
TTITLE8=Χορωδία - Ανάμεσα τρεις θάλασσες [Ανατ. Θεσσαλίας]
TTITLE9=Χορωδία - Θούριος [ήχος α', Ορφικής Λύρας, Κλεοβ. Αρτεμίδου]
TTITLE10=Άνευ ερμηνευτού - Δεν στόειπα εγώ Θανάση μου [οργανικό, αργό καθιστικ
TTITLE10=ό]
EXTD=
EXTT0=
EXTT1=
EXTT2=
EXTT3=
EXTT4=
EXTT5=
EXTT6=
EXTT7=
EXTT8=
EXTT9=
EXTT10=
PLAYORDER=
